<svg viewBox="0 0 30 30" width="30px" height="30px" xmlns="http://www.w3.org/2000/svg" xmlns:bx="https://boxy-svg.com">
    <defs></defs>
    <rect width="8.998" height="9" style=""></rect>
    <rect x="1.5" y="1.5" width="5.999" height="5.999" style="fill: rgb(255, 255, 255);" bx:origin="0.522011 0.5"></rect>
    <rect x="2.999" y="3" width="2.999" height="3" style=""></rect>
    <rect width="8.998" height="9" style="" y="21"></rect>
    <rect x="1.5" y="22.5" width="5.999" height="5.999" style="fill: rgb(255, 255, 255);" bx:origin="0.522011 0.5"></rect>
    <rect x="2.999" y="24" width="2.999" height="3" style=""></rect>
    <rect width="8.998" height="9" style="" x="20.994"></rect>
    <rect x="22.494" y="1.5" width="5.999" height="5.999" style="fill: rgb(255, 255, 255);" bx:origin="0.522011 0.5"></rect>
    <rect x="23.994" y="3" width="2.999" height="3" style=""></rect>
    <rect x="11.996" y="1.5" width="1.5" height="3" style=""></rect>
    <rect x="11.996" y="4.5" width="1.5" height="1.5" style=""></rect>
    <rect x="11.996" y="7.5" width="1.5" height="1.5" style=""></rect>
    <rect x="11.996" y="10.499" width="5.999" height="1.5" style=""></rect>
    <rect x="3.953" y="10.499" width="5.045" height="1.5" style=""></rect>
    <rect x="3.953" y="13.501" width="3.545" height="1.5" style=""></rect>
    <rect x="11.996" y="13.501" width="1.5" height="5.999" style=""></rect>
    <rect x="11.996" y="19.5" width="5.999" height="1.5" style=""></rect>
    <rect x="20.994" y="13.501" width="7.498" height="1.5" style=""></rect>
    <rect x="20.994" y="22.5" width="4.499" height="1.5" style=""></rect>
    <rect x="12.473" y="22.5" width="7.022" height="1.5" style=""></rect>
    <rect x="14.998" y="25.499" width="4.499" height="1.5" style=""></rect>
    <rect x="22.494" y="25.499" width="1.5" height="4.5" style=""></rect>
    <rect x="25.493" y="21" width="1.5" height="1.5" style=""></rect>
    <rect x="22.494" y="18" width="1.5" height="4.5" style=""></rect>
    <rect x="10.499" y="28.5" width="1.5" height="1.5" style=""></rect>
    <rect y="16.5" width="1.5" height="1.5" style=""></rect>
    <rect x="2.453" y="16.5" width="5.045" height="1.5" style=""></rect>
    <rect y="12" width="1.5" height="1.5" style="" x="2.453"></rect>
    <rect x="20.994" y="10.499" width="1.5" height="5.999" style=""></rect>
    <rect x="17.995" y="15" width="1.5" height="5.999" style=""></rect>
    <rect x="13.496" y="16.5" width="1.5" height="1.5" style=""></rect>
    <rect x="13.496" y="25.499" width="1.5" height="1.5" style=""></rect>
    <rect x="25.501" y="18" width="4.499" height="1.5" style=""></rect>
    <rect x="14.998" y="1.5" width="1.5" height="7.5" style=""></rect>
    <rect x="8.998" y="13.501" width="1.5" height="4.5" style=""></rect>
    <rect x="14.998" y="13.501" width="2.999" height="1.5" style=""></rect>
    <rect x="10.499" y="24" width="1.5" height="1.5" style=""></rect>
    <rect x="25.493" y="15" width="1.5" height="1.5" style=""></rect>
    <rect x="26.993" y="10.499" width="1.5" height="1.5" style=""></rect>
    <rect x="17.995" y="5.999" width="1.5" height="1.5" style=""></rect>
    <rect x="5.999" y="18" width="1.5" height="1.5" style=""></rect>
    <rect y="13.501" width="1.5" height="1.5" style=""></rect>
    <rect x="23.994" y="10.499" width="1.5" height="1.5" style=""></rect>
    <rect x="25.493" y="16.5" width="1.5" height="1.5" style=""></rect>
    <rect x="19.495" y="19.5" width="1.5" height="1.5" style=""></rect>
    <rect x="14.998" y="15" width="1.5" height="1.5" style=""></rect>
    <rect x="8.998" y="19.5" width="1.5" height="1.5" style=""></rect>
    <rect y="19.5" width="1.5" height="1.5" style=""></rect>
    <rect x="10.499" y="5.999" width="1.5" height="1.5" style=""></rect>
    <rect x="10.499" y="12" width="1.5" height="1.5" style=""></rect>
    <rect x="19.495" y="10.499" width="1.5" height="1.5" style=""></rect>
    <rect x="19.495" y="7.5" width="1.5" height="1.5" style=""></rect>
    <rect x="13.496" y="5.999" width="1.5" height="1.5" style=""></rect>
    <rect x="10.499" y="18" width="1.5" height="1.5" style=""></rect>
    <rect x="16.495" y="18" width="1.5" height="1.5" style=""></rect>
    <rect x="14.28" y="24" width="1.5" height="1.5" style=""></rect>
    <rect x="23.994" y="24" width="1.5" height="1.5" style=""></rect>
    <rect x="26.993" y="25.499" width="1.5" height="1.5" style=""></rect>
    <rect x="28.493" y="22.5" width="1.5" height="4.5" style=""></rect>
    <rect x="24.001" y="25.499" width="1.5" height="1.5" style=""></rect>
    <rect x="20.153" y="25.499" width="1.5" height="1.5" style=""></rect>
    <rect x="19.495" y="13.501" width="1.5" height="1.5" style=""></rect>
    <rect x="14.998" y="12" width="1.5" height="1.5" style=""></rect>
    <rect y="10.499" width="1.5" height="1.5" style=""></rect>
    <rect y="12" width="1.5" height="1.5" style=""></rect>
    <rect x="2.453" y="15" width="1.5" height="1.5" style=""></rect>
    <rect x="2.453" y="18" width="1.5" height="1.5" style=""></rect>
    <rect x="10.499" width="1.5" height="1.5" style=""></rect>
    <rect x="17.995" width="1.5" height="1.5" style=""></rect>
    <rect x="17.995" y="1.5" width="1.5" height="1.5" style=""></rect>
    <rect x="16.495" y="9" width="1.5" height="1.5" style=""></rect>
    <rect x="22.494" y="10.499" width="1.5" height="1.5" style=""></rect>
    <rect x="28.493" y="12" width="1.5" height="1.5" style=""></rect>
    <rect x="26.993" y="16.5" width="1.5" height="1.5" style=""></rect>
    <rect x="26.993" y="21" width="1.5" height="1.5" style=""></rect>
    <rect x="26.993" y="19.5" width="1.5" height="1.5" style=""></rect>
    <rect x="23.994" y="19.5" width="1.5" height="1.5" style=""></rect>
    <rect x="17.995" y="21" width="1.5" height="1.5" style=""></rect>
    <rect x="10.499" y="21" width="1.5" height="1.5" style=""></rect>
    <rect x="10.499" y="25.499" width="1.5" height="1.5" style=""></rect>
    <rect x="11.996" y="27" width="1.5" height="1.5" style=""></rect>
    <rect x="15.78" y="27" width="1.5" height="1.5" style=""></rect>
    <rect x="20.153" y="27" width="1.5" height="1.5" style=""></rect>
    <rect x="20.279" y="16.824" width="1.5" height="1.5" style=""></rect>
    <rect x="19.495" y="16.824" width="1.5" height="1.5" style=""></rect>
    <rect x="16.495" y="12" width="1.5" height="1.5" style=""></rect>
    <rect x="10.499" y="9" width="1.5" height="1.5" style=""></rect>
    <rect x="13.496" y="9" width="1.5" height="1.5" style=""></rect>
    <rect x="13.496" y="1.5" width="1.5" height="1.5" style=""></rect>
    <rect x="5.999" y="15" width="1.5" height="1.5" style=""></rect>
    <rect x="5.999" y="19.5" width="1.5" height="1.5" style=""></rect>
    <rect x="10.499" y="15.221" width="1.5" height="1.5" style=""></rect>
    <rect x="11.996" y="12" width="1.5" height="1.5" style=""></rect>
    <rect x="23.994" y="12" width="1.5" height="1.5" style=""></rect>
    <rect x="22.494" y="16.5" width="1.5" height="1.5" style=""></rect>
    <rect x="20.994" y="21.215" width="1.5" height="1.5" style=""></rect>
    <rect x="16.495" y="16.5" width="1.5" height="1.5" style=""></rect>
    <rect x="17.995" y="7.5" width="1.5" height="1.5" style=""></rect>
    <rect x="22.494" y="28.5" width="7.505" height="1.5" style=""></rect>
  </svg>